<svg xmlns="http://www.w3.org/2000/svg" style="height:512px;width:512px" viewBox="0 0 512 512">
  <path d="M111.14 20.39c-3.76 9.01-2.93 15.9-2.93 28.03 0 27 24.07 48.41 52.56 52.56a649.52 649.52 0 0 0 59.6 5.81c-8.57 7.4-13.91 18.1-13.91 35.13 0 17.57 6.43 37.85 16.56 52.97 10.12 15.1 23.23 24.37 36.03 24.37s25.9-9.26 36.03-24.37c10.13-15.12 16.56-35.4 16.56-52.97 0-17.19-5.43-27.95-14.12-35.34a646.18 646.18 0 0 0 56-5.6c28.49-4.15 51.47-23.72 52.56-52.56.37-9.72-1.64-18.74-2.94-28.03-2.94 27.7-26.2 45.69-54.3 49.65a666.96 666.96 0 0 1-183.38 0c-28.11-3.96-51.37-21.94-54.32-49.65z" style="color:#000;fill:#0f0;stroke-width:10;-inkscape-stroke:none"/>
  <path d="M109.26 17.49c-1.59.02-3.14.38-4.7.7a47.47 47.47 0 0 0-3.21 14.73c-.35 5.64-.13 11.3-.12 16.95a53.4 53.4 0 0 0 9.41 28.64c8.39 12.33 21.22 21.24 35.24 26.04a83.23 83.23 0 0 0 17.14 3.82c14.43 2 28.94 3.4 43.47 4.42-5.07 8.67-7.01 18.84-7.03 28.8 0 13.5 3.08 26.9 8.23 39.34 4.73 11.28 11.25 21.95 19.95 30.61 6.46 6.4 14.35 11.68 23.3 13.77 7.4 1.8 15.33.98 22.34-1.97 8.99-3.73 16.5-10.33 22.62-17.8 8.59-10.57 14.7-23.03 18.56-36.05 3.33-11.4 4.98-23.41 3.8-35.27-.78-7.59-2.9-15.12-6.8-21.7a610.36 610.36 0 0 0 44.74-4.87c14.65-2.44 28.8-8.97 39.43-19.46a57.99 57.99 0 0 0 16.1-28.91c2.05-9.08 1.58-18.5.23-27.65-.68-4.66-1.5-9.3-2.14-13.96l-13.43.22a48.23 48.23 0 0 1-3.29 14.1c-3.7 9.17-10.69 16.78-19.05 21.95a65.12 65.12 0 0 1-20.28 8.1c-.81.18-1.9.4-2.84.57-2.6.49-5.44.8-8.15 1.2a642.6 642.6 0 0 1-66.62 5.29 661.05 661.05 0 0 1-73.3-1.94c-12.18-1-24.33-2.35-36.44-4.05-1.14-.17-2.53-.37-3.76-.6a97.47 97.47 0 0 1-8.76-1.92c-9-2.44-17.87-6.31-24.78-12.73a36.2 36.2 0 0 1-10.84-18.98 47.2 47.2 0 0 1-1-7.87c-1.91-1.57-4-3.22-6.56-3.45a11.8 11.8 0 0 0-1.46-.07zm6 31.93c7.92 10.74 19.36 18.6 31.82 23.18a88.2 88.2 0 0 0 20.58 4.81 670.75 670.75 0 0 0 109.54 5.67 654.5 654.5 0 0 0 73.82-6.29c14.44-2.23 28.47-8.2 39.42-17.98a62.1 62.1 0 0 0 8.58-9.4 44.05 44.05 0 0 1-9.5 24.95c-7.05 8.86-17.28 14.78-28.1 17.8-6 1.75-12.28 2.34-18.43 3.2a661.1 661.1 0 0 1-49.07 4.41l-14.25.82c4.84 4.14 9.73 8.2 14.52 12.4a30.2 30.2 0 0 1 8.8 14.74c1.68 6.34 1.9 13 1.44 19.5a93.72 93.72 0 0 1-5.62 24.78l-1.11 2.88c-4.18 10.25-10 20.02-18.14 27.64-4.8 4.45-10.56 8.24-17.1 9.43-5.54 1.03-11.2-.7-15.97-3.47-7.36-4.3-13.2-10.81-17.89-17.85a83.95 83.95 0 0 1-3.1-5.1c-.32-.58-.8-1.43-1.15-2.13a97.97 97.97 0 0 1-10.32-32.64c-.87-7.2-.85-14.57.74-21.67a30.69 30.69 0 0 1 8.2-15.18c2.9-2.77 6.03-5.27 9.03-7.92l6.13-5.3c-12.54-.66-25.04-1.19-37.53-2.25a622.61 622.61 0 0 1-39.42-4.49 63.2 63.2 0 0 1-12.16-3.15c-.37-.15-1.03-.38-1.44-.55-10.62-4.22-20.28-11.45-26.35-21.24a39.2 39.2 0 0 1-6-19.65z" style="color:#000;fill:#000;-inkscape-stroke:none"/>
  <path d="M189.78 118.22c-248.93 7.21-200.63 194.3-22.12 242.5 40.8-39.46-6.55-101.94-43.72-57.03-23.22-43.48-20.68-82.77 4.5-95.03 48.72 27.06 83.56 88.52 86.12 148.4-33.6 23.15-59.62 63.03-59.62 63.03l26.34 38.78-41.3 23.5h82.12c-40.52-40.52-11.77-86.09 36.22-86.09 48.64 0 74.12 48.22 36.24 86.1h81.28l-40.47-23.5 26.35-38.79s-26.46-40.5-60.44-63.56c2.74-59.72 37.52-120.89 86.1-147.87 25.17 12.26 27.72 51.55 4.5 95.03-37.17-44.9-84.53 17.57-43.72 57.03 178.5-48.2 226.78-235.28-22.13-242.5a75.98 75.98 0 0 1 3.16 22.22c0 21.95-7.42 45.02-19.72 63.37-12.3 18.35-30.17 32.66-51.56 32.66-21.4 0-39.27-14.3-51.57-32.66-12.3-18.35-19.72-41.42-19.72-63.37 0-8.05 1.11-15.5 3.16-22.22z" style="color:#000;fill:#f0f;stroke-width:10;stroke-linecap:round;stroke-linejoin:round;-inkscape-stroke:none"/>
  <path d="M189.63 113.22c-62.86 1.82-107.44 14.94-136.29 35.05-28.84 20.11-41.64 47.64-39.9 76.13 3.47 56.98 62.2 116.65 152.91 141.15a5 5 0 0 0 4.78-1.24c22.05-21.31 20.8-49.84 7.89-66.77-6.46-8.47-15.98-14.24-26.74-14.43-8.92-.16-18.29 3.66-26.92 11.82-8.94-18.7-13.06-36.25-12.33-50.2.76-14.4 6.03-24.65 15.34-30.26 44.9 26.3 77.7 83.96 81 140.27-33.6 24.15-58.62 62.62-58.62 62.62a5 5 0 0 0 .05 5.54l23.3 34.3-36.6 20.83a5 5 0 0 0 2.47 9.34h82.13a5 5 0 0 0 3.53-8.53c-19.17-19.18-21.27-38.02-14.13-52.5 7.14-14.47 24.4-25.06 46.81-25.06 22.67 0 39.2 11.08 46.03 25.93 6.83 14.86 4.48 33.84-13.31 51.63a5 5 0 0 0 3.53 8.54h81.29a5 5 0 0 0 2.5-9.33l-35.82-20.8 23.33-34.35a5 5 0 0 0 .05-5.54s-25.43-39.05-59.43-63.16c3.47-56.14 36.21-113.52 80.96-139.73 9.31 5.6 14.59 15.86 15.34 30.26.73 13.96-3.39 31.5-12.33 50.2-8.63-8.15-18-11.98-26.91-11.82-10.76.19-20.29 5.96-26.74 14.43-12.91 16.93-14.17 45.46 7.88 66.77a5 5 0 0 0 4.78 1.24c90.71-24.5 149.43-84.17 152.9-141.15 1.74-28.48-11.06-56.01-39.9-76.12-28.84-20.12-73.43-33.23-136.28-35.06a5 5 0 0 0-4.93 6.46 70.97 70.97 0 0 1 2.94 20.76c0 20.82-7.14 43.08-18.88 60.59-11.71 17.49-28.24 30.44-47.4 30.44-19.17 0-35.7-12.95-47.41-30.44-11.74-17.52-18.87-39.77-18.87-60.6 0-7.58 1.04-14.53 2.93-20.75a5 5 0 0 0-8.3-5zm-6.14 10.34a82.88 82.88 0 0 0-1.86 16.88c0 23.07 7.7 46.97 20.56 66.16 12.88 19.21 32.1 34.87 55.72 34.87 23.62 0 42.84-15.66 55.71-34.87 12.86-19.2 20.57-43.09 20.57-66.16a83.1 83.1 0 0 0-1.87-16.88c58.05 2.5 98.85 15.09 124.42 32.92 26.53 18.5 37.18 42.1 35.64 67.32-3.03 49.84-56.56 107-142.6 131.21-16.55-17.75-14.52-38.96-5.03-51.41 4.93-6.47 11.66-10.37 18.96-10.5 7.3-.12 15.72 3.39 24.31 13.77a5 5 0 0 0 8.27-.83c11.94-22.35 17.42-43.8 16.48-61.83-.95-18.03-8.79-33.03-23.2-40.05a5 5 0 0 0-4.62.13c-50.5 28.05-85.84 90.52-88.66 152.01a5 5 0 0 0 2.18 4.37c29.39 19.94 52.53 52.68 57.17 59.47l-24.4 35.92a5 5 0 0 0 1.62 7.14l24.42 14.17h-51.85c13.5-18.1 15.41-38.2 8-54.33-8.6-18.73-29.14-31.76-55.12-31.76-25.57 0-46.68 12.2-55.78 30.64-7.9 16.02-6.04 36.39 8.56 55.45h-52.22l24.88-14.15a5 5 0 0 0 1.67-7.16L161 420.13c4.62-6.76 27.36-38.95 56.39-58.95a5 5 0 0 0 2.16-4.33c-2.64-61.68-38.05-124.43-88.7-152.56a5 5 0 0 0-4.61-.13c-14.42 7.02-22.26 22.02-23.2 40.04-.95 18.03 4.53 39.48 16.48 61.84a5 5 0 0 0 8.26.83c8.6-10.38 17.01-13.9 24.31-13.77 7.3.13 14.03 4.03 18.96 10.5 9.5 12.45 11.52 33.66-5.03 51.41-86.04-24.2-139.57-81.37-142.6-131.22-1.54-25.2 9.1-48.82 35.63-67.32 25.58-17.83 66.37-30.42 124.43-32.91Z" style="color:#000;fill:#000;stroke-linecap:round;stroke-linejoin:round;-inkscape-stroke:none"/>
  <path d="M234.2 123.16c9.67 0 17.56 7.88 17.56 17.56s-7.89 17.56-17.56 17.56a17.59 17.59 0 0 1-17.56-17.56c0-9.68 7.88-17.56 17.56-17.56zm51.6 0c9.68 0 17.56 7.88 17.56 17.56s-7.88 17.56-17.56 17.56a17.59 17.59 0 0 1-17.56-17.56c0-9.68 7.89-17.56 17.56-17.56zm-51.6 6.45a11.07 11.07 0 0 0-11.11 11.1c0 3.13 1.25 5.92 3.3 7.93a12 12 0 0 1-1.15-5.05c0-6.5 5.34-11.83 11.82-11.83a12 12 0 0 1 5.06 1.15 11.01 11.01 0 0 0-7.92-3.3zm51.6 0a11.07 11.07 0 0 0-11.1 11.1c0 3.13 1.25 5.92 3.29 7.93a12 12 0 0 1-1.15-5.05c0-6.5 5.34-11.83 11.83-11.83a12 12 0 0 1 5.05 1.15 11 11 0 0 0-7.92-3.3z" style="fill:#000;fill-opacity:1;stroke-width:.358375"/>
</svg>
