<?xml version="1.0" encoding="UTF-8" standalone="no"?>
<svg
   style="height: 512px; width: 512px;"
   viewBox="0 0 512 512"
   version="1.1"
   id="svg27"
   xmlns="http://www.w3.org/2000/svg"
   xmlns:svg="http://www.w3.org/2000/svg"
   xmlns:rdf="http://www.w3.org/1999/02/22-rdf-syntax-ns#"
   xmlns:cc="http://creativecommons.org/ns#"
   xmlns:dc="http://purl.org/dc/elements/1.1/">
  <title
     id="title1006">webchummer logo</title>
  <defs
     id="defs31" />
  <g
     id="g2496">
    <g
       id="path873">
      <path
         style="color:#000000;fill:#00ff00;stroke-width:10;-inkscape-stroke:none"
         d="m 111.14469,20.386289 c -3.766,9.014 -2.938,15.91 -2.938,28.032 0,26.994999 24.076,48.412999 52.563,52.562001 19.28,2.807 39.315,4.758 59.594,5.813 -8.56,7.39 -13.907,18.092 -13.907,35.124 0,17.576 6.436,37.856 16.562,52.97 10.126,15.112 23.233,24.374 36.03,24.374 12.8,0 25.906,-9.26 36.033,-24.374 10.126,-15.113 16.562,-35.392 16.562,-52.97 0,-17.186 -5.43,-27.946 -14.125,-35.342 19.053,-1.09 37.854,-2.952 56,-5.594 28.487,-4.147002 51.47,-23.720002 52.563,-52.563001 0.368,-9.723 -1.637,-18.74 -2.938,-28.03 -2.943,27.71 -26.205,45.689999 -54.313,49.655999 -59.833,8.443 -123.54,8.443 -183.375,0 -28.107,-3.966 -51.37,-21.944999 -54.312,-49.656999 z"
         id="path2224" />
      <path
         id="path2226"
         style="color:#000000;fill:#000000;-inkscape-stroke:none"
         d="m 109.26367,17.490234 c -1.59055,0.01881 -3.14447,0.383767 -4.69531,0.699219 -1.8508,4.700005 -2.93819,9.687107 -3.21932,14.730167 -0.34692,5.644228 -0.1252,11.303005 -0.12248,16.953427 0.24977,10.202302 3.65861,20.238092 9.41483,28.641579 8.38742,12.321836 21.21744,21.238806 35.23374,26.031154 5.54604,1.93412 11.32729,3.09975 17.14726,3.82494 14.42966,1.99867 28.93776,3.39135 43.46784,4.41834 -5.06546,8.67498 -7.01025,18.84264 -7.03068,28.80036 -0.007,13.49959 3.08301,26.89903 8.23257,39.34013 4.72587,11.28467 11.24772,21.95103 19.95207,30.61184 6.4595,6.39421 14.34424,11.68356 23.28885,13.76678 7.40862,1.80098 15.34139,0.98047 22.34551,-1.96841 8.9917,-3.72829 16.50803,-10.32599 22.61713,-17.79587 8.59033,-10.57065 14.70078,-23.0291 18.56738,-36.05409 3.32409,-11.39974 4.97803,-23.41326 3.79357,-35.27233 -0.77232,-7.58686 -2.8932,-15.11476 -6.79374,-21.7038 14.95675,-1.14257 29.8976,-2.62425 44.73223,-4.86615 14.65307,-2.4338 28.80683,-8.964736 39.4322,-19.456982 7.98485,-7.832944 13.74275,-17.960561 16.10481,-28.91356 2.04716,-9.0777 1.5758,-18.502855 0.22531,-27.644395 -0.6782,-4.660583 -1.49524,-9.299578 -2.13517,-13.966567 -4.47721,0.07467 -8.95444,0.147671 -13.43165,0.222656 -0.45403,4.81859 -1.41702,9.618155 -3.28781,14.098167 -3.69838,9.173178 -10.69151,16.787719 -19.05746,21.95257 -6.21347,3.870043 -13.14534,6.513451 -20.27777,8.10356 -0.81253,0.177642 -1.90493,0.403783 -2.83576,0.569484 -2.59312,0.483432 -5.43818,0.806685 -8.14721,1.19154 -11.36362,1.507747 -22.8518,2.697404 -34.22797,3.588585 -10.78149,0.826291 -21.63148,1.409612 -32.39238,1.706924 -13.97587,0.402393 -27.96409,0.35169 -41.9377,-0.11708 -10.4025,-0.363454 -20.9945,-0.965285 -31.37083,-1.826056 -12.18025,-0.990541 -24.3299,-2.348697 -36.4319,-4.045038 -1.13971,-0.170715 -2.53651,-0.374361 -3.7681,-0.600444 -2.96728,-0.515077 -5.90419,-1.153662 -8.75475,-1.92456 -9.00852,-2.437757 -17.87335,-6.310175 -24.78071,-12.723698 -5.4578,-5.014971 -9.29796,-11.736794 -10.84217,-18.986985 -0.60273,-2.58003 -0.84044,-5.223115 -1.00271,-7.861969 -1.90793,-1.576594 -3.98621,-3.228118 -6.55069,-3.449278 -0.48474,-0.06114 -0.97305,-0.0775 -1.46103,-0.07416 z m 5.99414,31.927735 c 7.92195,10.743134 19.35831,18.595492 31.81731,23.182202 6.61882,2.486937 13.57344,3.97334 20.58376,4.811146 36.27228,4.918359 72.95389,6.731931 109.5392,5.66954 24.69668,-0.73336 49.36252,-2.769142 73.8201,-6.289986 14.43872,-2.232761 28.47107,-8.20108 39.42229,-17.98063 3.16587,-2.837059 6.0622,-5.979645 8.58297,-9.403991 -0.5238,9.02995 -3.8213,17.901017 -9.50657,24.955759 -7.05152,8.855075 -17.27929,14.776688 -28.09003,17.80056 -6.01353,1.746449 -12.2904,2.336128 -18.44139,3.197311 -16.32157,2.10474 -32.66829,3.528286 -49.06694,4.41087 -4.74887,0.2718 -9.49774,0.54372 -14.24663,0.81519 4.83338,4.13972 9.72828,8.20945 14.51964,12.39713 4.30565,3.913 7.34805,9.12402 8.80257,14.7461 1.67579,6.34407 1.90001,12.99211 1.43379,19.5098 -0.67357,8.47153 -2.69371,16.80473 -5.61733,24.77275 -0.31846,0.83801 -0.73558,1.9426 -1.11445,2.87339 -4.1749,10.25465 -10.00062,20.02882 -18.13226,27.64188 -4.81177,4.44968 -10.56805,8.24635 -17.1129,9.43226 -5.53155,1.02953 -11.19394,-0.69421 -15.96054,-3.4713 -7.36516,-4.30376 -13.19344,-10.81102 -17.88753,-17.84976 -1.10138,-1.65618 -2.124,-3.36334 -3.10482,-5.09327 -0.31312,-0.58361 -0.79657,-1.43529 -1.15304,-2.13609 -5.28419,-10.17128 -8.86187,-21.26054 -10.31419,-32.63805 -0.87225,-7.19579 -0.85011,-14.57443 0.73516,-21.67215 1.2723,-5.68612 4.03679,-11.07654 8.20707,-15.18065 2.89335,-2.76575 6.02584,-5.26849 9.02365,-7.91906 2.04278,-1.76405 4.08659,-3.52691 6.13025,-5.28994 -12.53681,-0.67393 -25.03954,-1.195595 -37.52994,-2.258655 -13.19024,-1.088306 -26.35459,-2.567151 -39.41846,-4.4894 -4.14529,-0.639263 -8.22452,-1.699442 -12.16097,-3.146472 -0.37233,-0.149824 -1.02731,-0.382419 -1.43371,-0.551359 -10.62735,-4.219045 -20.28116,-11.450562 -26.35403,-21.240477 -3.65848,-5.881512 -5.85068,-12.713673 -6.00914,-19.655429 z" />
    </g>
    <g
       id="path23">
      <path
         style="color:#000000;fill:#ff00ff;stroke-width:10;stroke-linecap:round;stroke-linejoin:round;-inkscape-stroke:none"
         d="m 189.78,118.219 c -248.928,7.213 -200.628,194.293 -22.124,242.5 40.812,-39.456 -6.55,-101.937 -43.72,-57.033 -23.22,-43.474 -20.674,-82.77 4.5,-95.03 48.72,27.067 83.566,88.52 86.126,148.405 -33.595,23.148 -59.625,63.032 -59.625,63.032 l 26.344,38.78 -41.31,23.5 h 82.124 c -40.513,-40.52 -11.77,-86.093 36.22,-86.093 48.645,0 74.12,48.22 36.248,86.095 h 81.282 l -40.47,-23.5 26.345,-38.78 c 0,0 -26.458,-40.502 -60.44,-63.564 2.744,-59.716 37.52,-120.887 86.095,-147.874 25.176,12.262 27.722,51.557 4.5,95.03 -37.168,-44.903 -84.53,17.578 -43.72,57.033 178.5,-48.206 226.788,-235.28 -22.124,-242.5 2.054,6.73 3.158,14.17 3.158,22.218 0,21.95 -7.423,45.024 -19.72,63.375 -12.295,18.35 -30.17,32.656 -51.562,32.656 -21.392,0 -39.266,-14.306 -51.562,-32.657 -12.296,-18.352 -19.72,-41.426 -19.72,-63.375 0,-8.048 1.105,-15.488 3.157,-22.22 z"
         id="path2063" />
      <path
         style="color:#000000;fill:#000000;stroke-linecap:round;stroke-linejoin:round;-inkscape-stroke:none"
         d="M 189.63477,113.2207 C 126.77265,115.04221 82.187789,128.15927 53.34375,148.27148 24.499711,168.3837 11.703554,195.91217 13.439453,224.40039 16.911252,281.37684 75.63754,341.04854 166.35156,365.54687 a 5.0005,5.0005 0 0 0 4.7793,-1.23242 c 22.04907,-21.31648 20.79153,-49.84162 7.88476,-66.77734 -6.45338,-8.46786 -15.98024,-14.24161 -26.74023,-14.43164 -8.91298,-0.15741 -18.2827,3.6694 -26.91797,11.82226 -8.94079,-18.69709 -13.05817,-36.24425 -12.32617,-50.19921 0.75546,-14.40223 6.02831,-24.65275 15.33594,-30.25977 44.89716,26.29768 77.71177,83.96459 81.00586,140.27539 C 175.77649,378.88945 150.75,417.35937 150.75,417.35937 a 5.0005,5.0005 0 0 0 0.0508,5.54297 l 23.30078,34.30274 -36.60351,20.82226 a 5.0005,5.0005 0 0 0 2.47265,9.34571 h 82.125 a 5.0005,5.0005 0 0 0 3.53516,-8.53516 C 206.45509,459.6588 204.35703,440.821 211.5,426.34375 c 7.14297,-14.47725 24.4022,-25.06445 46.81445,-25.06445 22.67038,0 39.19917,11.0791 46.02539,25.93359 6.82623,14.85449 4.47696,33.83609 -13.3125,51.62695 a 5.0005,5.0005 0 0 0 3.53516,8.53516 h 81.2832 a 5.0005,5.0005 0 0 0 2.50977,-9.32422 l -35.82813,-20.80469 23.32813,-34.34179 a 5.0005,5.0005 0 0 0 0.0508,-5.54297 c 0,0 -25.42205,-39.05512 -59.42773,-63.16016 3.47148,-56.13869 36.21213,-113.51907 80.96289,-139.73242 9.30981,5.60767 14.58434,15.85879 15.33984,30.26172 0.732,13.95483 -3.38646,31.50247 -12.32813,50.19922 -8.63473,-8.15228 -18.00345,-11.9798 -26.91601,-11.82227 -10.75977,0.19018 -20.28688,5.96382 -26.74024,14.43164 -12.9067,16.93565 -14.16529,45.45934 7.88282,66.77539 a 5.0005,5.0005 0 0 0 4.77929,1.23242 c 90.71204,-24.49783 149.4341,-84.16696 152.9043,-141.14257 1.7351,-28.48781 -11.06139,-56.01629 -39.9043,-76.12891 -28.8429,-20.11262 -73.42506,-33.22946 -136.2832,-35.05273 a 5.0005,5.0005 0 0 0 -4.92773,6.45703 c 1.89969,6.2244 2.9414,13.16707 2.9414,20.75781 0,20.82272 -7.13897,43.07795 -18.875,60.5918 -11.7165,17.4866 -28.2454,30.43945 -47.4082,30.43945 -19.1628,0 -35.69058,-12.95165 -47.4082,-30.43945 -11.73528,-17.51511 -18.87305,-39.77028 -18.87305,-60.5918 0,-7.59032 1.04106,-14.53365 2.93945,-20.76172 a 5.0005,5.0005 0 0 0 -8.30273,-5 z m -6.14063,10.33789 c -1.10253,5.35632 -1.86914,10.91826 -1.86914,16.87891 0,23.07644 7.70971,46.96935 20.56641,66.1582 12.87435,19.21416 32.09368,34.87305 55.71484,34.87305 23.62116,0 42.84332,-15.65969 55.7168,-34.87305 12.85795,-19.18812 20.5664,-43.08096 20.5664,-66.1582 0,-5.96018 -0.76805,-11.5208 -1.87109,-16.87695 58.05588,2.49519 98.85046,15.08661 124.42187,32.91797 26.53142,18.50077 37.17602,42.10947 35.64063,67.31835 -3.03575,49.84249 -56.55912,107.0077 -142.5957,131.2129 -16.55336,-17.74631 -14.52511,-38.95784 -5.03516,-51.41016 4.93188,-6.47141 11.66412,-10.36513 18.96289,-10.49414 7.29877,-0.12901 15.71432,3.38435 24.31055,13.76953 a 5.0005,5.0005 0 0 0 8.26172,-0.83203 c 11.94175,-22.35569 17.42803,-43.81075 16.48242,-61.83789 -0.94561,-18.02715 -8.7845,-33.02036 -23.20313,-40.04297 a 5.0005,5.0005 0 0 0 -4.61718,0.125 c -50.49329,28.05275 -85.83639,90.51908 -88.66211,152.01367 a 5.0005,5.0005 0 0 0 2.1875,4.36719 c 29.38743,19.94388 52.53037,52.68588 57.17187,59.4707 l -24.40625,35.92578 a 5.0005,5.0005 0 0 0 1.625,7.13477 l 24.41211,14.17578 h -51.8418 c 13.50587,-18.10465 15.40822,-38.19991 7.99219,-54.33789 -8.60451,-18.72422 -29.13675,-31.75781 -55.11133,-31.75781 -25.5777,0 -46.68348,12.20141 -55.78125,30.64062 -7.90375,16.0192 -6.04602,36.38833 8.5586,55.45313 h -52.21875 l 24.88086,-14.1543 a 5.0005,5.0005 0 0 0 1.66211,-7.15625 l -24.40625,-35.92773 c 4.62165,-6.76219 27.36303,-38.95747 56.38867,-58.95704 a 5.0005,5.0005 0 0 0 2.1582,-4.33007 c -2.63645,-61.67342 -38.04963,-124.42675 -88.69336,-152.5625 a 5.0005,5.0005 0 0 0 -4.61719,-0.125 c -14.41791,7.02167 -22.25556,22.0158 -23.20117,40.04296 -0.9456,18.02717 4.53976,39.48172 16.48047,61.8379 a 5.0005,5.0005 0 0 0 8.26172,0.83398 c 8.59673,-10.38546 17.01345,-13.90039 24.3125,-13.77148 7.29905,0.1289 14.03103,4.02276 18.96289,10.49414 9.4899,12.45225 11.5192,33.66526 -5.03516,51.41211 C 79.987602,330.80435 26.459037,273.63648 23.421875,223.79297 21.885778,198.58375 32.532047,174.97498 59.064453,156.47461 84.636995,138.64353 125.43388,126.05205 183.49414,123.55859 Z"
         id="path2065" />
    </g>
    <path
       d="m 234.197,123.15859 c 9.67613,0 17.56039,7.88424 17.56039,17.56037 0,9.67613 -7.88426,17.56039 -17.56039,17.56039 -9.67613,0 -17.5604,-7.88426 -17.5604,-17.56039 0,-9.67613 7.88427,-17.56037 17.5604,-17.56037 z m 51.60601,0 c 9.67613,0 17.56039,7.88424 17.56039,17.56037 0,9.67613 -7.88426,17.56039 -17.56039,17.56039 -9.67612,0 -17.56037,-7.88426 -17.56037,-17.56039 0,-9.67613 7.88425,-17.56037 17.56037,-17.56037 z m -51.60601,6.45075 c -6.16406,0 -11.10963,4.94558 -11.10963,11.10962 0,3.11786 1.25431,5.9132 3.29705,7.92009 -0.71674,-1.541 -1.1468,-3.2612 -1.1468,-5.05309 0,-6.48658 5.33978,-11.82636 11.82638,-11.82636 1.79187,0 3.51207,0.43004 5.05309,1.1468 -2.0069,-2.04274 -4.80223,-3.29706 -7.92009,-3.29706 z m 51.60601,0 c -6.16404,0 -11.10962,4.94558 -11.10962,11.10962 0,3.11786 1.25432,5.9132 3.29706,7.92009 -0.71677,-1.541 -1.1468,-3.2612 -1.1468,-5.05309 0,-6.48658 5.33978,-11.82636 11.82636,-11.82636 1.79189,0 3.51209,0.43004 5.0531,1.1468 -2.0069,-2.04274 -4.80224,-3.29706 -7.9201,-3.29706 z"
       style="fill:#000000;fill-opacity:1;stroke-width:0.358375"
       id="path465" />
  </g>
  <metadata
     id="metadata1004">
    <rdf:RDF>
      <cc:Work
         rdf:about="">
        <dc:title>webchummer logo</dc:title>
      </cc:Work>
    </rdf:RDF>
  </metadata>
</svg>
